<svg width="33" height="33" viewBox="0 0 33 33" fill="none" xmlns="http://www.w3.org/2000/svg">
<path d="M14.3229 1.623L0.572915 15.373C0.364582 15.5813 0.216665 15.807 0.129165 16.0501C0.0430537 16.2931 -1.40638e-06 16.5536 -1.38209e-06 16.8313C-1.35781e-06 17.1091 0.0430538 17.3695 0.129165 17.6126C0.216665 17.8556 0.364582 18.0813 0.572916 18.2897L14.3229 32.0397C14.7049 32.4216 15.1819 32.6216 15.7542 32.6397C16.3278 32.6563 16.8229 32.4563 17.2396 32.0397C17.6562 31.6577 17.8736 31.1806 17.8917 30.6084C17.9083 30.0348 17.7083 29.5397 17.2917 29.123L7.08333 18.9147L30.3646 18.9147C30.9549 18.9147 31.45 18.7154 31.85 18.3167C32.2486 17.9167 32.4479 17.4216 32.4479 16.8313C32.4479 16.241 32.2486 15.7466 31.85 15.348C31.45 14.948 30.9549 14.748 30.3646 14.748L7.08333 14.748L17.2917 4.53966C17.6736 4.15772 17.8736 3.6716 17.8917 3.08133C17.9083 2.49105 17.7083 2.00494 17.2917 1.623C16.9097 1.20633 16.4236 0.997994 15.8333 0.997994C15.2431 0.997994 14.7396 1.20633 14.3229 1.623Z" fill="#303030"/>
</svg>
