<svg width="8" height="7" viewBox="0 0 8 7" fill="none" xmlns="http://www.w3.org/2000/svg">
<path d="M4.56678 0.258104L7.3583 3.05282C7.40059 3.09516 7.43062 3.14104 7.44839 3.19044C7.46587 3.23984 7.47461 3.29277 7.47461 3.34923C7.47461 3.40569 7.46587 3.45862 7.44839 3.50802C7.43062 3.55742 7.40059 3.60329 7.3583 3.64564L4.56678 6.44035C4.48924 6.51798 4.39238 6.55863 4.27621 6.5623C4.15976 6.56569 4.05923 6.52504 3.97464 6.44035C3.89005 6.36272 3.84592 6.26575 3.84226 6.14945C3.83887 6.03286 3.87948 5.93222 3.96407 5.84753L6.03656 3.77267L1.31001 3.77267C1.19018 3.77267 1.08965 3.73216 1.00845 3.65114C0.927521 3.56984 0.887057 3.4692 0.887057 3.34923C0.887057 3.22925 0.927521 3.12876 1.00845 3.04774C1.08965 2.96644 1.19018 2.92579 1.31001 2.92579L6.03656 2.92579L3.96407 0.850922C3.88653 0.773291 3.84592 0.674487 3.84226 0.554512C3.83887 0.434537 3.87948 0.335735 3.96407 0.258104C4.04161 0.173415 4.1403 0.131071 4.26014 0.131071C4.37998 0.131071 4.48219 0.173415 4.56678 0.258104Z" fill="#303030"/>
</svg>
