<svg width="34" height="34" viewBox="0 0 34 34" fill="none" xmlns="http://www.w3.org/2000/svg">
<path d="M17.0007 18.9859L21.109 23.0943C21.3687 23.354 21.6993 23.4839 22.1007 23.4839C22.502 23.4839 22.8326 23.354 23.0923 23.0943C23.352 22.8345 23.4819 22.504 23.4819 22.1026C23.4819 21.7012 23.352 21.3707 23.0923 21.1109L18.984 17.0026L23.0923 12.8943C23.352 12.6346 23.4819 12.304 23.4819 11.9026C23.4819 11.5012 23.352 11.1707 23.0923 10.9109C22.8326 10.6512 22.502 10.5214 22.1007 10.5214C21.6993 10.5214 21.3687 10.6512 21.109 10.9109L17.0007 15.0193L12.8923 10.9109C12.6326 10.6512 12.302 10.5214 11.9007 10.5214C11.4993 10.5214 11.1687 10.6512 10.909 10.9109C10.6493 11.1707 10.5194 11.5012 10.5194 11.9026C10.5194 12.304 10.6493 12.6346 10.909 12.8943L15.0173 17.0026L10.909 21.1109C10.6493 21.3707 10.5194 21.7012 10.5194 22.1026C10.5194 22.504 10.6493 22.8345 10.909 23.0943C11.1687 23.354 11.4993 23.4839 11.9007 23.4839C12.302 23.4839 12.6326 23.354 12.8923 23.0943L17.0007 18.9859ZM17.0007 31.1693C15.0409 31.1693 13.1993 30.7972 11.4757 30.0529C9.75204 29.3087 8.25274 28.2996 6.97774 27.0255C5.70273 25.7505 4.6936 24.2512 3.95032 22.5276C3.20704 20.804 2.83493 18.9623 2.83398 17.0026C2.83398 15.0429 3.2061 13.2012 3.95032 11.4776C4.69454 9.75399 5.70368 8.25469 6.97774 6.97969C8.25274 5.70469 9.75204 4.69555 11.4757 3.95227C13.1993 3.20899 15.0409 2.83688 17.0007 2.83594C18.9604 2.83594 20.802 3.20805 22.5257 3.95227C24.2493 4.69649 25.7486 5.70563 27.0236 6.97969C28.2986 8.25469 29.3082 9.75399 30.0524 11.4776C30.7966 13.2012 31.1683 15.0429 31.1673 17.0026C31.1673 18.9623 30.7952 20.804 30.051 22.5276C29.3068 24.2512 28.2976 25.7505 27.0236 27.0255C25.7486 28.3005 24.2493 29.3101 22.5257 30.0544C20.802 30.7986 18.9604 31.1702 17.0007 31.1693ZM17.0007 28.3359C20.1645 28.3359 22.8444 27.238 25.0402 25.0422C27.2361 22.8464 28.334 20.1665 28.334 17.0026C28.334 13.8387 27.2361 11.1589 25.0402 8.96302C22.8444 6.76719 20.1645 5.66927 17.0007 5.66927C13.8368 5.66927 11.1569 6.76719 8.96107 8.96302C6.76523 11.1589 5.66732 13.8387 5.66732 17.0026C5.66732 20.1665 6.76523 22.8464 8.96107 25.0422C11.1569 27.238 13.8368 28.3359 17.0007 28.3359Z" fill="#303030"/>
</svg>
