<svg width="48" height="48" viewBox="0 0 48 48" fill="none" xmlns="http://www.w3.org/2000/svg">
<circle cx="24" cy="24" r="23.5" fill="white" stroke="#E8E8E8"/>
<path d="M18.2734 26.1457L17.5574 28.8189L14.9402 28.8742C14.158 27.4235 13.7144 25.7637 13.7144 23.9998C13.7144 22.2942 14.1292 20.6858 14.8644 19.2695H14.865L17.195 19.6967L18.2157 22.0128C18.0021 22.6356 17.8857 23.3041 17.8857 23.9998C17.8857 24.7549 18.0225 25.4783 18.2734 26.1457Z" fill="#FBBB00"/>
<path d="M34.1059 22.0781C34.2241 22.7003 34.2857 23.3429 34.2857 23.9996C34.2857 24.736 34.2082 25.4543 34.0607 26.1472C33.56 28.505 32.2517 30.5638 30.4393 32.0208L30.4387 32.0202L27.5039 31.8705L27.0886 29.2776C28.2912 28.5723 29.231 27.4685 29.7261 26.1472H24.2261V22.0781H29.8064H34.1059Z" fill="#518EF8"/>
<path d="M30.4388 32.0202L30.4394 32.0208C28.6767 33.4376 26.4376 34.2853 24.0001 34.2853C20.083 34.2853 16.6775 32.096 14.9402 28.874L18.2734 26.1455C19.1421 28.4637 21.3784 30.114 24.0001 30.114C25.127 30.114 26.1827 29.8094 27.0886 29.2775L30.4388 32.0202Z" fill="#28B446"/>
<path d="M30.5655 16.0818L27.2334 18.8098C26.2958 18.2238 25.1875 17.8852 24.0001 17.8852C21.3191 17.8852 19.0409 19.6112 18.2158 22.0125L14.8651 19.2693H14.8645C16.5763 15.9688 20.0249 13.7139 24.0001 13.7139C26.4958 13.7139 28.7841 14.6029 30.5655 16.0818Z" fill="#F14336"/>
</svg>
