<svg width="10" height="10" viewBox="0 0 10 10" fill="none" xmlns="http://www.w3.org/2000/svg">
<path d="M4.77128 5.37945L6.07962 6.68779C6.16233 6.7705 6.2676 6.81186 6.39542 6.81186C6.52325 6.81186 6.62852 6.7705 6.71123 6.68779C6.79394 6.60508 6.83529 6.49981 6.83529 6.37198C6.83529 6.24416 6.79394 6.13889 6.71123 6.05618L5.40289 4.74784L6.71123 3.4395C6.79394 3.35679 6.83529 3.25152 6.83529 3.1237C6.83529 2.99587 6.79394 2.8906 6.71123 2.80789C6.62852 2.72518 6.52325 2.68382 6.39542 2.68382C6.2676 2.68382 6.16233 2.72518 6.07962 2.80789L4.77128 4.11623L3.46294 2.80789C3.38023 2.72518 3.27496 2.68382 3.14713 2.68382C3.01931 2.68382 2.91404 2.72518 2.83133 2.80789C2.74862 2.8906 2.70726 2.99587 2.70726 3.1237C2.70726 3.25152 2.74862 3.35679 2.83133 3.4395L4.13967 4.74784L2.83133 6.05618C2.74862 6.13889 2.70726 6.24416 2.70726 6.37198C2.70726 6.49981 2.74862 6.60508 2.83133 6.68779C2.91404 6.7705 3.01931 6.81186 3.14713 6.81186C3.27496 6.81186 3.38023 6.7705 3.46294 6.68779L4.77128 5.37945ZM4.77128 9.25935C4.14719 9.25935 3.56069 9.14085 3.01179 8.90384C2.46289 8.66684 1.98542 8.34547 1.57938 7.93973C1.17335 7.5337 0.851977 7.05623 0.615273 6.50733C0.378569 5.95843 0.260066 5.37193 0.259766 4.74784C0.259766 4.12375 0.378268 3.53725 0.615273 2.98835C0.852278 2.43945 1.17365 1.96198 1.57938 1.55595C1.98542 1.14991 2.46289 0.828539 3.01179 0.591835C3.56069 0.355131 4.14719 0.236629 4.77128 0.236328C5.39537 0.236328 5.98187 0.354831 6.53077 0.591835C7.07967 0.82884 7.55714 1.15021 7.96317 1.55595C8.36921 1.96198 8.69073 2.43945 8.92773 2.98835C9.16474 3.53725 9.28309 4.12375 9.28279 4.74784C9.28279 5.37193 9.16429 5.95843 8.92728 6.50733C8.69028 7.05623 8.36891 7.5337 7.96317 7.93973C7.55714 8.34577 7.07967 8.66729 6.53077 8.9043C5.98187 9.1413 5.39537 9.25965 4.77128 9.25935ZM4.77128 8.35705C5.77885 8.35705 6.63228 8.00741 7.33156 7.30812C8.03085 6.60884 8.38049 5.75541 8.38049 4.74784C8.38049 3.74027 8.03085 2.88684 7.33156 2.18756C6.63228 1.48827 5.77885 1.13863 4.77128 1.13863C3.76371 1.13863 2.91028 1.48827 2.21099 2.18756C1.51171 2.88684 1.16207 3.74027 1.16207 4.74784C1.16207 5.75541 1.51171 6.60884 2.21099 7.30812C2.91028 8.00741 3.76371 8.35705 4.77128 8.35705Z" fill="#C72121"/>
</svg>
