<svg width="29" height="30" viewBox="0 0 29 30" fill="none" xmlns="http://www.w3.org/2000/svg">
<path d="M14.1667 16.9859L18.275 21.0943C18.5347 21.354 18.8653 21.4839 19.2667 21.4839C19.6681 21.4839 19.9986 21.354 20.2583 21.0943C20.5181 20.8345 20.6479 20.504 20.6479 20.1026C20.6479 19.7012 20.5181 19.3707 20.2583 19.1109L16.15 15.0026L20.2583 10.8943C20.5181 10.6346 20.6479 10.304 20.6479 9.9026C20.6479 9.50121 20.5181 9.17066 20.2583 8.91094C19.9986 8.65122 19.6681 8.52136 19.2667 8.52136C18.8653 8.52136 18.5347 8.65122 18.275 8.91094L14.1667 13.0193L10.0583 8.91094C9.79861 8.65122 9.46806 8.52136 9.06667 8.52136C8.66528 8.52136 8.33472 8.65122 8.075 8.91094C7.81528 9.17066 7.68542 9.50121 7.68542 9.9026C7.68542 10.304 7.81528 10.6346 8.075 10.8943L12.1833 15.0026L8.075 19.1109C7.81528 19.3707 7.68542 19.7012 7.68542 20.1026C7.68542 20.504 7.81528 20.8345 8.075 21.0943C8.33472 21.354 8.66528 21.4839 9.06667 21.4839C9.46806 21.4839 9.79861 21.354 10.0583 21.0943L14.1667 16.9859ZM14.1667 29.1693C12.2069 29.1693 10.3653 28.7972 8.64167 28.0529C6.91806 27.3087 5.41875 26.2996 4.14375 25.0255C2.86875 23.7505 1.85961 22.2512 1.11633 20.5276C0.373056 18.804 0.000944445 16.9623 0 15.0026C0 13.0429 0.372111 11.2012 1.11633 9.47761C1.86056 7.75399 2.86969 6.25469 4.14375 4.97969C5.41875 3.70469 6.91806 2.69555 8.64167 1.95227C10.3653 1.20899 12.2069 0.836882 14.1667 0.835938C16.1264 0.835938 17.9681 1.20805 19.6917 1.95227C21.4153 2.69649 22.9146 3.70563 24.1896 4.97969C25.4646 6.25469 26.4742 7.75399 27.2184 9.47761C27.9626 11.2012 28.3343 13.0429 28.3333 15.0026C28.3333 16.9623 27.9612 18.804 27.217 20.5276C26.4728 22.2512 25.4636 23.7505 24.1896 25.0255C22.9146 26.3005 21.4153 27.3101 19.6917 28.0544C17.9681 28.7986 16.1264 29.1702 14.1667 29.1693ZM14.1667 26.3359C17.3306 26.3359 20.0104 25.238 22.2063 23.0422C24.4021 20.8464 25.5 18.1665 25.5 15.0026C25.5 11.8387 24.4021 9.15885 22.2063 6.96302C20.0104 4.76719 17.3306 3.66927 14.1667 3.66927C11.0028 3.66927 8.32292 4.76719 6.12708 6.96302C3.93125 9.15885 2.83333 11.8387 2.83333 15.0026C2.83333 18.1665 3.93125 20.8464 6.12708 23.0422C8.32292 25.238 11.0028 26.3359 14.1667 26.3359Z" fill="#C72121"/>
</svg>
