<svg width="32" height="32" viewBox="0 0 32 32" fill="none" xmlns="http://www.w3.org/2000/svg">
<path d="M20.9067 19.4497C25.5601 19.4497 29.3334 15.6923 29.3334 11.0577C29.3334 6.42433 25.5601 2.66699 20.9067 2.66699C16.2534 2.66699 12.4827 6.42433 12.4827 11.0577C12.4827 13.2043 13.4627 14.7657 13.4627 14.7657L3.27341 24.9123C2.81607 25.3683 2.17607 26.5523 3.27341 27.6457L4.44941 28.8163C4.90674 29.207 6.05607 29.7537 6.99607 28.8163L8.36941 27.451C9.74007 28.8163 11.3081 28.0363 11.8961 27.255C12.8747 25.8897 11.7001 24.523 11.7001 24.523L12.0921 24.1323C13.9721 26.0057 15.6187 24.9137 16.2067 24.1323C17.1867 22.767 16.2067 21.4003 16.2067 21.4003C15.8147 20.6203 15.0307 20.6203 16.0107 19.6443L17.1867 18.4737C18.1267 19.2537 20.0601 19.4497 20.9094 19.4497H20.9067Z" stroke="black" stroke-width="1.5" stroke-linejoin="round"/>
<path d="M23.8466 11.0589C23.8448 11.8366 23.5342 12.5818 22.9832 13.1306C22.4321 13.6794 21.6856 13.9869 20.9079 13.9855C20.1302 13.9869 19.3837 13.6794 18.8326 13.1306C18.2816 12.5818 17.971 11.8366 17.9692 11.0589C17.9699 10.6737 18.0465 10.2924 18.1946 9.93673C18.3426 9.58111 18.5593 9.25814 18.8322 8.98625C19.105 8.71436 19.4288 8.49887 19.785 8.35211C20.1411 8.20534 20.5227 8.13016 20.9079 8.13086C21.2931 8.13016 21.6747 8.20534 22.0309 8.35211C22.387 8.49887 22.7108 8.71436 22.9836 8.98625C23.2565 9.25814 23.4732 9.58111 23.6212 9.93673C23.7693 10.2924 23.8459 10.6737 23.8466 11.0589Z" stroke="black" stroke-width="1.5"/>
</svg>
