<svg width="32" height="32" viewBox="0 0 32 32" fill="none" xmlns="http://www.w3.org/2000/svg">
<path d="M30.3596 1.85078C29.8125 1.27523 29.1558 0.814997 28.4281 0.497219C27.7003 0.179441 26.9164 0.0105429 26.1224 0.000478012C25.3284 -0.00958692 24.5404 0.139385 23.8048 0.438615C23.0693 0.737844 22.4011 1.18128 21.8396 1.74278L3.0896 20.4928C2.43454 21.1487 1.98011 21.9778 1.7796 22.8828L0.0235983 30.7828C-0.012727 30.947 -0.00703922 31.1178 0.040136 31.2792C0.0873112 31.4407 0.174449 31.5876 0.293486 31.7064C0.412523 31.8253 0.559613 31.9122 0.721143 31.9591C0.882674 32.006 1.05343 32.0114 1.2176 31.9748L9.0696 30.2288C10.0042 30.0211 10.8603 29.5515 11.5376 28.8748L27.4976 12.9128L28.1716 13.5848C28.5465 13.9598 28.7572 14.4685 28.7572 14.9988C28.7572 15.5291 28.5465 16.0377 28.1716 16.4128L26.2916 18.2928C26.1041 18.4806 25.9989 18.7351 25.999 19.0005C25.9992 19.2659 26.1048 19.5203 26.2926 19.7078C26.4804 19.8953 26.7349 20.0005 27.0003 20.0003C27.2657 20.0002 27.5201 19.8946 27.7076 19.7068L29.5856 17.8268C30.3355 17.0767 30.7567 16.0594 30.7567 14.9988C30.7567 13.9381 30.3355 12.9209 29.5856 12.1708L28.9136 11.4988L30.2536 10.1588C31.3512 9.06118 31.9764 7.57808 31.9959 6.02594C32.0153 4.4738 31.4294 2.97552 30.3596 1.85078ZM23.2536 3.15878C23.9991 2.44261 24.9956 2.04723 26.0294 2.0575C27.0631 2.06777 28.0516 2.48288 28.7827 3.21373C29.5138 3.94458 29.9292 4.93293 29.9399 5.96664C29.9505 7.00034 29.5555 7.99703 28.8396 8.74278L10.1236 27.4588C9.7155 27.8674 9.1993 28.1512 8.6356 28.2768L2.3156 29.6828L3.7316 23.3168C3.8494 22.7824 4.11802 22.2931 4.5056 21.9068L23.2536 3.15878Z" fill="#D1D1D1"/>
</svg>
